<svg width="52" height="52" viewBox="0 0 52 52" fill="none" xmlns="http://www.w3.org/2000/svg">
<path d="M0 37C0 36.4477 0.447715 36 1 36H3C3.55228 36 4 36.4477 4 37V39C4 39.5523 3.55228 40 3 40H1C0.447715 40 0 39.5523 0 39V37Z" fill="#F7F7F7"/>
<path d="M0 49C0 48.4477 0.447715 48 1 48H3C3.55228 48 4 48.4477 4 49V51C4 51.5523 3.55228 52 3 52H1C0.447715 52 0 51.5523 0 51V49Z" fill="#F7F7F7"/>
<path d="M12 13C12 12.4477 12.4477 12 13 12H15C15.5523 12 16 12.4477 16 13V15C16 15.5523 15.5523 16 15 16H13C12.4477 16 12 15.5523 12 15V13Z" fill="#F7F7F7"/>
<path d="M12 25C12 24.4477 12.4477 24 13 24H15C15.5523 24 16 24.4477 16 25V27C16 27.5523 15.5523 28 15 28H13C12.4477 28 12 27.5523 12 27V25Z" fill="#F7F7F7"/>
<path d="M12 37C12 36.4477 12.4477 36 13 36H15C15.5523 36 16 36.4477 16 37V39C16 39.5523 15.5523 40 15 40H13C12.4477 40 12 39.5523 12 39V37Z" fill="#F7F7F7"/>
<path d="M12 49C12 48.4477 12.4477 48 13 48H15C15.5523 48 16 48.4477 16 49V51C16 51.5523 15.5523 52 15 52H13C12.4477 52 12 51.5523 12 51V49Z" fill="#F7F7F7"/>
<path d="M36 1C36 0.447715 36.4477 0 37 0H39C39.5523 0 40 0.447715 40 1V3C40 3.55228 39.5523 4 39 4H37C36.4477 4 36 3.55228 36 3V1Z" fill="#F7F7F7"/>
<path d="M36 13C36 12.4477 36.4477 12 37 12H39C39.5523 12 40 12.4477 40 13V15C40 15.5523 39.5523 16 39 16H37C36.4477 16 36 15.5523 36 15V13Z" fill="#F7F7F7"/>
<path d="M36 25C36 24.4477 36.4477 24 37 24H39C39.5523 24 40 24.4477 40 25V27C40 27.5523 39.5523 28 39 28H37C36.4477 28 36 27.5523 36 27V25Z" fill="#F7F7F7"/>
<path d="M36 37C36 36.4477 36.4477 36 37 36H39C39.5523 36 40 36.4477 40 37V39C40 39.5523 39.5523 40 39 40H37C36.4477 40 36 39.5523 36 39V37Z" fill="#F7F7F7"/>
<path d="M36 49C36 48.4477 36.4477 48 37 48H39C39.5523 48 40 48.4477 40 49V51C40 51.5523 39.5523 52 39 52H37C36.4477 52 36 51.5523 36 51V49Z" fill="#F7F7F7"/>
<path d="M24 13C24 12.4477 24.4477 12 25 12H27C27.5523 12 28 12.4477 28 13V15C28 15.5523 27.5523 16 27 16H25C24.4477 16 24 15.5523 24 15V13Z" fill="#F7F7F7"/>
<path d="M24 25C24 24.4477 24.4477 24 25 24H27C27.5523 24 28 24.4477 28 25V27C28 27.5523 27.5523 28 27 28H25C24.4477 28 24 27.5523 24 27V25Z" fill="#F7F7F7"/>
<path d="M24 37C24 36.4477 24.4477 36 25 36H27C27.5523 36 28 36.4477 28 37V39C28 39.5523 27.5523 40 27 40H25C24.4477 40 24 39.5523 24 39V37Z" fill="#F7F7F7"/>
<path d="M24 49C24 48.4477 24.4477 48 25 48H27C27.5523 48 28 48.4477 28 49V51C28 51.5523 27.5523 52 27 52H25C24.4477 52 24 51.5523 24 51V49Z" fill="#F7F7F7"/>
<path d="M48 1C48 0.447715 48.4477 0 49 0H51C51.5523 0 52 0.447715 52 1V3C52 3.55228 51.5523 4 51 4H49C48.4477 4 48 3.55228 48 3V1Z" fill="#F7F7F7"/>
<path d="M48 13C48 12.4477 48.4477 12 49 12H51C51.5523 12 52 12.4477 52 13V15C52 15.5523 51.5523 16 51 16H49C48.4477 16 48 15.5523 48 15V13Z" fill="#F7F7F7"/>
<path d="M48 25C48 24.4477 48.4477 24 49 24H51C51.5523 24 52 24.4477 52 25V27C52 27.5523 51.5523 28 51 28H49C48.4477 28 48 27.5523 48 27V25Z" fill="#F7F7F7"/>
<path d="M48 37C48 36.4477 48.4477 36 49 36H51C51.5523 36 52 36.4477 52 37V39C52 39.5523 51.5523 40 51 40H49C48.4477 40 48 39.5523 48 39V37Z" fill="#F7F7F7"/>
<path d="M48 49C48 48.4477 48.4477 48 49 48H51C51.5523 48 52 48.4477 52 49V51C52 51.5523 51.5523 52 51 52H49C48.4477 52 48 51.5523 48 51V49Z" fill="#F7F7F7"/>
</svg>
