<svg width="52" height="52" viewBox="0 0 52 52" fill="none" xmlns="http://www.w3.org/2000/svg">
<path d="M52 36.9248C52 36.3736 51.5523 35.9268 51 35.9268H49C48.4477 35.9268 48 36.3736 48 36.9248V38.9207C48 39.4719 48.4477 39.9187 49 39.9187H51C51.5523 39.9187 52 39.4719 52 38.9207V36.9248Z" fill="#7D7D7D"/>
<path d="M52 48.9004C52 48.3493 51.5523 47.9024 51 47.9024H49C48.4477 47.9024 48 48.3493 48 48.9004V50.8963C48 51.4475 48.4477 51.8943 49 51.8943H51C51.5523 51.8943 52 51.4475 52 50.8963V48.9004Z" fill="#7D7D7D"/>
<path d="M40 12.9736C40 12.4224 39.5523 11.9756 39 11.9756H37C36.4477 11.9756 36 12.4224 36 12.9736V14.9695C36 15.5207 36.4477 15.9675 37 15.9675H39C39.5523 15.9675 40 15.5207 40 14.9695V12.9736Z" fill="#7D7D7D"/>
<path d="M40 24.9492C40 24.398 39.5523 23.9512 39 23.9512H37C36.4477 23.9512 36 24.398 36 24.9492V26.9451C36 27.4963 36.4477 27.9431 37 27.9431H39C39.5523 27.9431 40 27.4963 40 26.9451V24.9492Z" fill="#7D7D7D"/>
<path d="M40 36.9248C40 36.3736 39.5523 35.9268 39 35.9268H37C36.4477 35.9268 36 36.3736 36 36.9248V38.9207C36 39.4719 36.4477 39.9187 37 39.9187H39C39.5523 39.9187 40 39.4719 40 38.9207V36.9248Z" fill="#7D7D7D"/>
<path d="M40 48.9004C40 48.3493 39.5523 47.9024 39 47.9024H37C36.4477 47.9024 36 48.3493 36 48.9004V50.8963C36 51.4475 36.4477 51.8943 37 51.8943H39C39.5523 51.8943 40 51.4475 40 50.8963V48.9004Z" fill="#7D7D7D"/>
<path d="M16 0.997968C16 0.446805 15.5523 0 15 0H13C12.4477 0 12 0.446805 12 0.997968V2.9939C12 3.54507 12.4477 3.99187 13 3.99187H15C15.5523 3.99187 16 3.54507 16 2.9939V0.997968Z" fill="#7D7D7D"/>
<path d="M16 12.9736C16 12.4224 15.5523 11.9756 15 11.9756H13C12.4477 11.9756 12 12.4224 12 12.9736V14.9695C12 15.5207 12.4477 15.9675 13 15.9675H15C15.5523 15.9675 16 15.5207 16 14.9695V12.9736Z" fill="#7D7D7D"/>
<path d="M16 24.9492C16 24.398 15.5523 23.9512 15 23.9512H13C12.4477 23.9512 12 24.398 12 24.9492V26.9451C12 27.4963 12.4477 27.9431 13 27.9431H15C15.5523 27.9431 16 27.4963 16 26.9451V24.9492Z" fill="#7D7D7D"/>
<path d="M16 36.9248C16 36.3736 15.5523 35.9268 15 35.9268H13C12.4477 35.9268 12 36.3736 12 36.9248V38.9207C12 39.4719 12.4477 39.9187 13 39.9187H15C15.5523 39.9187 16 39.4719 16 38.9207V36.9248Z" fill="#7D7D7D"/>
<path d="M16 48.9004C16 48.3493 15.5523 47.9024 15 47.9024H13C12.4477 47.9024 12 48.3493 12 48.9004V50.8963C12 51.4475 12.4477 51.8943 13 51.8943H15C15.5523 51.8943 16 51.4475 16 50.8963V48.9004Z" fill="#7D7D7D"/>
<path d="M28 12.9736C28 12.4224 27.5523 11.9756 27 11.9756H25C24.4477 11.9756 24 12.4224 24 12.9736V14.9695C24 15.5207 24.4477 15.9675 25 15.9675H27C27.5523 15.9675 28 15.5207 28 14.9695V12.9736Z" fill="#7D7D7D"/>
<path d="M28 24.9492C28 24.398 27.5523 23.9512 27 23.9512H25C24.4477 23.9512 24 24.398 24 24.9492V26.9451C24 27.4963 24.4477 27.9431 25 27.9431H27C27.5523 27.9431 28 27.4963 28 26.9451V24.9492Z" fill="#7D7D7D"/>
<path d="M28 36.9248C28 36.3736 27.5523 35.9268 27 35.9268H25C24.4477 35.9268 24 36.3736 24 36.9248V38.9207C24 39.4719 24.4477 39.9187 25 39.9187H27C27.5523 39.9187 28 39.4719 28 38.9207V36.9248Z" fill="#7D7D7D"/>
<path d="M28 48.9004C28 48.3493 27.5523 47.9024 27 47.9024H25C24.4477 47.9024 24 48.3493 24 48.9004V50.8963C24 51.4475 24.4477 51.8943 25 51.8943H27C27.5523 51.8943 28 51.4475 28 50.8963V48.9004Z" fill="#7D7D7D"/>
<path d="M4 0.997968C4 0.446805 3.55228 0 3 0H1C0.447716 0 0 0.446805 0 0.997968V2.9939C0 3.54507 0.447716 3.99187 1 3.99187H3C3.55228 3.99187 4 3.54507 4 2.9939V0.997968Z" fill="#7D7D7D"/>
<path d="M4 12.9736C4 12.4224 3.55228 11.9756 3 11.9756H1C0.447716 11.9756 0 12.4224 0 12.9736V14.9695C0 15.5207 0.447716 15.9675 1 15.9675H3C3.55228 15.9675 4 15.5207 4 14.9695V12.9736Z" fill="#7D7D7D"/>
<path d="M4 24.9492C4 24.398 3.55228 23.9512 3 23.9512H1C0.447716 23.9512 0 24.398 0 24.9492V26.9451C0 27.4963 0.447716 27.9431 1 27.9431H3C3.55228 27.9431 4 27.4963 4 26.9451V24.9492Z" fill="#7D7D7D"/>
<path d="M4 36.9248C4 36.3736 3.55228 35.9268 3 35.9268H1C0.447716 35.9268 0 36.3736 0 36.9248V38.9207C0 39.4719 0.447716 39.9187 1 39.9187H3C3.55228 39.9187 4 39.4719 4 38.9207V36.9248Z" fill="#7D7D7D"/>
<path d="M4 48.9004C4 48.3493 3.55228 47.9024 3 47.9024H1C0.447716 47.9024 0 48.3493 0 48.9004V50.8963C0 51.4475 0.447716 51.8943 1 51.8943H3C3.55228 51.8943 4 51.4475 4 50.8963V48.9004Z" fill="#7D7D7D"/>
</svg>
