<svg width="52" height="52" viewBox="0 0 52 52" fill="none" xmlns="http://www.w3.org/2000/svg">
<path d="M52 37C52 36.4477 51.5523 36 51 36H49C48.4477 36 48 36.4477 48 37V39C48 39.5523 48.4477 40 49 40H51C51.5523 40 52 39.5523 52 39V37Z" fill="#212121"/>
<path d="M52 49C52 48.4477 51.5523 48 51 48H49C48.4477 48 48 48.4477 48 49V51C48 51.5523 48.4477 52 49 52H51C51.5523 52 52 51.5523 52 51V49Z" fill="#212121"/>
<path d="M40 13C40 12.4477 39.5523 12 39 12H37C36.4477 12 36 12.4477 36 13V15C36 15.5523 36.4477 16 37 16H39C39.5523 16 40 15.5523 40 15V13Z" fill="#212121"/>
<path d="M40 25C40 24.4477 39.5523 24 39 24H37C36.4477 24 36 24.4477 36 25V27C36 27.5523 36.4477 28 37 28H39C39.5523 28 40 27.5523 40 27V25Z" fill="#212121"/>
<path d="M40 37C40 36.4477 39.5523 36 39 36H37C36.4477 36 36 36.4477 36 37V39C36 39.5523 36.4477 40 37 40H39C39.5523 40 40 39.5523 40 39V37Z" fill="#212121"/>
<path d="M40 49C40 48.4477 39.5523 48 39 48H37C36.4477 48 36 48.4477 36 49V51C36 51.5523 36.4477 52 37 52H39C39.5523 52 40 51.5523 40 51V49Z" fill="#212121"/>
<path d="M16 1C16 0.447715 15.5523 0 15 0H13C12.4477 0 12 0.447715 12 1V3C12 3.55228 12.4477 4 13 4H15C15.5523 4 16 3.55228 16 3V1Z" fill="#212121"/>
<path d="M16 13C16 12.4477 15.5523 12 15 12H13C12.4477 12 12 12.4477 12 13V15C12 15.5523 12.4477 16 13 16H15C15.5523 16 16 15.5523 16 15V13Z" fill="#212121"/>
<path d="M16 25C16 24.4477 15.5523 24 15 24H13C12.4477 24 12 24.4477 12 25V27C12 27.5523 12.4477 28 13 28H15C15.5523 28 16 27.5523 16 27V25Z" fill="#212121"/>
<path d="M16 37C16 36.4477 15.5523 36 15 36H13C12.4477 36 12 36.4477 12 37V39C12 39.5523 12.4477 40 13 40H15C15.5523 40 16 39.5523 16 39V37Z" fill="#212121"/>
<path d="M16 49C16 48.4477 15.5523 48 15 48H13C12.4477 48 12 48.4477 12 49V51C12 51.5523 12.4477 52 13 52H15C15.5523 52 16 51.5523 16 51V49Z" fill="#212121"/>
<path d="M28 13C28 12.4477 27.5523 12 27 12H25C24.4477 12 24 12.4477 24 13V15C24 15.5523 24.4477 16 25 16H27C27.5523 16 28 15.5523 28 15V13Z" fill="#212121"/>
<path d="M28 25C28 24.4477 27.5523 24 27 24H25C24.4477 24 24 24.4477 24 25V27C24 27.5523 24.4477 28 25 28H27C27.5523 28 28 27.5523 28 27V25Z" fill="#212121"/>
<path d="M28 37C28 36.4477 27.5523 36 27 36H25C24.4477 36 24 36.4477 24 37V39C24 39.5523 24.4477 40 25 40H27C27.5523 40 28 39.5523 28 39V37Z" fill="#212121"/>
<path d="M28 49C28 48.4477 27.5523 48 27 48H25C24.4477 48 24 48.4477 24 49V51C24 51.5523 24.4477 52 25 52H27C27.5523 52 28 51.5523 28 51V49Z" fill="#212121"/>
<path d="M4 1C4 0.447715 3.55228 0 3 0H1C0.447716 0 0 0.447715 0 1V3C0 3.55228 0.447716 4 1 4H3C3.55228 4 4 3.55228 4 3V1Z" fill="#212121"/>
<path d="M4 13C4 12.4477 3.55228 12 3 12H1C0.447716 12 0 12.4477 0 13V15C0 15.5523 0.447716 16 1 16H3C3.55228 16 4 15.5523 4 15V13Z" fill="#212121"/>
<path d="M4 25C4 24.4477 3.55228 24 3 24H1C0.447716 24 0 24.4477 0 25V27C0 27.5523 0.447716 28 1 28H3C3.55228 28 4 27.5523 4 27V25Z" fill="#212121"/>
<path d="M4 37C4 36.4477 3.55228 36 3 36H1C0.447716 36 0 36.4477 0 37V39C0 39.5523 0.447716 40 1 40H3C3.55228 40 4 39.5523 4 39V37Z" fill="#212121"/>
<path d="M4 49C4 48.4477 3.55228 48 3 48H1C0.447716 48 0 48.4477 0 49V51C0 51.5523 0.447716 52 1 52H3C3.55228 52 4 51.5523 4 51V49Z" fill="#212121"/>
</svg>
