<svg width="22" height="22" viewBox="0 0 22 22" fill="none" xmlns="http://www.w3.org/2000/svg">
<path d="M3.0675 5.73327C1.32187 7.47919 0.339001 9.84555 0.334004 12.3144C0.329006 14.7833 1.30229 17.1536 3.04083 18.9066C5.00083 14.3733 8.49416 10.5866 12.8542 8.33327C9.09092 11.5175 6.55059 15.91 5.6675 20.7599C9.13416 22.3999 13.4008 21.7999 16.2675 18.9333C20.2542 14.9466 21.3742 4.07994 21.6142 1.09327C21.6225 0.998373 21.61 0.902795 21.5774 0.813264C21.5449 0.723733 21.4931 0.642425 21.4257 0.575061C21.3583 0.507697 21.277 0.455913 21.1875 0.423354C21.098 0.390795 21.0024 0.378252 20.9075 0.386606C17.9208 0.626606 7.05416 1.74661 3.0675 5.73327Z" fill="url(#paint0_linear_29_1089)"/>
<defs>
<linearGradient id="paint0_linear_29_1089" x1="10.9753" y1="0.384094" x2="10.9753" y2="21.6592" gradientUnits="userSpaceOnUse">
<stop stop-color="#FFC800"/>
<stop offset="0.919271" stop-color="#F7B108"/>
<stop offset="1" stop-color="#F2A60D"/>
</linearGradient>
</defs>
</svg>
